<svg width="512" height="512" viewBox="0 0 512 512" fill="none" xmlns="http://www.w3.org/2000/svg">
<g clip-path="url(#clip0_14_11)">
<path d="M256 52.2241L260.096 57.3441L275.456 79.8721L282.624 91.1361L294.912 109.568L310.272 133.12L320.512 148.48L330.752 163.84L344.064 184.32L354.304 199.68L361.472 210.944L381.952 241.664L396.288 263.168L407.552 280.576L417.792 295.936L435.2 322.56L445.44 337.92L466.944 370.688L481.28 392.192L488.448 402.432L492.544 409.6L506.88 431.104L512 439.296V442.368H463.872L456.704 432.128L443.392 411.648L433.152 396.288L423.936 381.952L407.552 357.376L391.168 332.8L381.952 318.464L371.712 303.104L354.304 276.48L342.016 258.048L322.56 228.352L308.224 206.848L301.056 195.584L284.672 171.008L267.264 144.384L256 128L244.736 145.408L228.352 169.984L216.064 188.416L200.704 211.968L190.464 227.328L172.032 254.976L164.864 266.24L148.48 290.816L130.048 318.464L122.88 329.728L106.496 354.304L82.944 390.144L76.8 399.36L333.824 400.384L349.184 423.936L359.424 439.296V442.368H0L1.024 437.248L19.456 409.6L34.816 386.048L45.056 370.688L63.488 343.04L73.728 326.656L83.968 312.32L94.208 295.936L105.472 279.552L112.64 268.288L126.976 246.784L146.432 217.088L154.624 204.8L164.864 189.44L180.224 165.888L190.464 150.528L199.68 136.192L220.16 105.472L232.448 87.0401L241.664 73.7281L245.76 66.5601L256 52.2241Z" fill="black"/>
<path d="M267.264 254.976H315.392L322.56 265.216L339.968 291.84L359.424 321.536L375.808 347.136L381.952 355.328L387.072 364.544L394.24 374.784L410.624 400.384L418.816 412.672L423.936 419.84L429.056 429.056L436.224 439.296V442.368H389.12L385.024 437.248L376.832 424.96L364.544 406.528L360.448 399.36L344.064 374.784L333.824 358.4L322.56 342.016L318.464 334.848L304.128 313.344L293.888 296.96L279.552 275.456L267.264 256V254.976Z" fill="black"/>
<path d="M465.92 180.224L471.04 185.344L481.28 200.704L491.52 216.064L508.928 241.664L512 246.784V249.856H420.864L421.888 245.76L442.368 215.04L454.656 196.608L464.896 181.248L465.92 180.224Z" fill="black"/>
<path d="M215.04 289.792L219.136 291.84L229.376 307.2L238.592 321.536L261.12 355.328V357.376H172.032L174.08 351.232L190.464 326.656L200.704 311.296L215.04 289.792Z" fill="black"/>
</g>
<defs>
<clipPath id="clip0_14_11">
<rect width="512" height="512" fill="white"/>
</clipPath>
</defs>
</svg>
