<svg width="512" height="512" viewBox="0 0 512 512" fill="none" xmlns="http://www.w3.org/2000/svg">
<g clip-path="url(#clip0_14_2)">
<path d="M475.347 209.517C481.072 192.277 483.052 174.014 481.155 155.947C479.257 137.881 473.527 120.428 464.346 104.753C450.734 81.0608 429.951 62.303 404.992 51.1841C380.032 40.0652 352.187 37.1597 325.47 42.8864C310.291 26.0024 290.937 13.4095 269.352 6.37249C247.766 -0.664508 224.709 -1.89786 202.496 2.79631C180.282 7.49047 159.696 17.9469 142.802 33.1153C125.909 48.2838 113.305 67.6303 106.255 89.2117C88.4558 92.8616 71.6408 100.268 56.9335 110.937C42.2262 121.606 29.9654 135.292 20.9707 151.078C7.21144 174.731 1.33082 202.147 4.17904 229.362C7.02725 256.577 18.4567 282.181 36.815 302.472C31.0691 319.704 29.0693 337.964 30.9493 356.031C32.8293 374.098 38.5458 391.555 47.7163 407.234C61.3449 430.935 82.1466 449.697 107.123 460.816C132.1 471.935 159.962 474.837 186.694 469.103C198.753 482.683 213.571 493.533 230.157 500.931C246.743 508.328 264.717 512.102 282.878 512C310.262 512.025 336.946 503.348 359.078 487.221C381.21 471.094 397.644 448.351 406.01 422.276C423.807 418.62 440.619 411.21 455.326 400.542C470.032 389.873 482.294 376.191 491.294 360.407C504.89 336.789 510.67 309.477 507.806 282.375C504.942 255.274 493.58 229.771 475.347 209.517ZM282.878 478.49C260.451 478.525 238.726 470.664 221.515 456.286L224.542 454.571L326.479 395.729C329.016 394.241 331.122 392.119 332.591 389.57C334.06 387.022 334.841 384.136 334.857 381.195V237.474L377.95 262.404C378.163 262.512 378.347 262.669 378.488 262.862C378.629 263.054 378.722 263.278 378.761 263.514V382.609C378.706 408.022 368.587 432.378 350.617 450.348C332.647 468.317 308.291 478.436 282.878 478.49ZM76.783 390.481C65.5354 371.06 61.497 348.294 65.3782 326.189L68.4075 328.006L170.445 386.848C172.97 388.329 175.844 389.11 178.771 389.11C181.699 389.11 184.573 388.329 187.098 386.848L311.744 314.987V364.744C311.732 365.002 311.663 365.254 311.54 365.481C311.417 365.709 311.245 365.905 311.036 366.056L207.787 425.604C185.752 438.298 159.581 441.729 135.019 435.143C110.457 428.558 89.5122 412.495 76.783 390.481ZM49.9371 168.439C61.2626 148.893 79.1388 133.985 100.401 126.353V247.467C100.363 250.393 101.11 253.275 102.566 255.814C104.021 258.352 106.132 260.454 108.676 261.899L232.717 333.457L189.621 358.385C189.388 358.509 189.128 358.574 188.864 358.574C188.6 358.574 188.34 358.509 188.107 358.385L85.0603 298.94C63.067 286.191 47.0219 265.247 40.4388 240.693C33.8557 216.139 37.2711 189.977 49.9371 167.936V168.439ZM403.991 250.696L279.548 178.432L322.543 153.6C322.776 153.476 323.036 153.411 323.3 153.411C323.564 153.411 323.824 153.476 324.058 153.6L427.104 213.148C442.86 222.239 455.704 235.625 464.138 251.742C472.571 267.859 476.246 286.043 474.733 304.171C473.22 322.298 466.581 339.621 455.592 354.117C444.603 368.613 429.717 379.684 412.672 386.037V264.924C412.583 262.003 411.735 259.155 410.213 256.66C408.691 254.166 406.548 252.112 403.991 250.696ZM446.886 186.204L443.857 184.386L342.022 125.041C339.482 123.55 336.59 122.764 333.645 122.764C330.699 122.764 327.807 123.55 325.267 125.041L200.725 196.9V147.144C200.699 146.892 200.741 146.636 200.848 146.405C200.954 146.174 201.121 145.976 201.331 145.832L304.378 86.385C320.171 77.2867 338.228 72.8733 356.438 73.6609C374.647 74.4485 392.256 80.4047 407.205 90.8327C422.154 101.261 433.824 115.729 440.852 132.547C447.879 149.364 449.973 167.835 446.889 185.798L446.886 186.204ZM177.205 274.411L134.112 249.583C133.896 249.453 133.712 249.277 133.572 249.068C133.432 248.859 133.339 248.622 133.301 248.373V129.583C133.325 111.359 138.536 93.5192 148.325 78.1482C158.115 62.7772 172.077 50.5106 188.581 42.7827C205.085 35.0547 223.448 32.1847 241.522 34.5083C259.597 36.8319 276.637 44.253 290.65 55.904L287.62 57.6213L185.685 116.459C183.148 117.947 181.042 120.069 179.573 122.617C178.104 125.165 177.324 128.052 177.308 130.993L177.205 274.411ZM200.621 223.949L256.13 191.953L311.744 223.949V287.936L256.333 319.93L200.723 287.936L200.621 223.949Z" fill="black"/>
</g>
<defs>
<clipPath id="clip0_14_2">
<rect width="512" height="512" fill="white"/>
</clipPath>
</defs>
</svg>
